<?xml version="1.0" encoding="iso-8859-1"?>
<!-- Generator: Adobe Illustrator 15.0.2, SVG Export Plug-In . SVG Version: 6.00 Build 0)  -->
<!DOCTYPE svg PUBLIC "-//W3C//DTD SVG 1.1//EN" "http://www.w3.org/Graphics/SVG/1.1/DTD/svg11.dtd">
<svg version="1.1" id="Layer_1" xmlns="http://www.w3.org/2000/svg" xmlns:xlink="http://www.w3.org/1999/xlink" x="0px" y="0px"
	 width="19.692px" height="23.834px" viewBox="0 0 19.692 23.834" style="enable-background:new 0 0 19.692 23.834;"
	 xml:space="preserve">
<g id="ico_x5F_alcohol_x5F_sm_1_">
	<path id="ico_x5F_alcohol_x5F_sm" d="M18.895,3.775c-0.012-0.004-0.023-0.006-0.034-0.012c-0.099-0.038-0.204-0.073-0.316-0.096
		c-0.028-0.008-0.058-0.016-0.088-0.02c-0.128-0.023-0.259-0.04-0.396-0.04c-0.057,0-0.118,0.005-0.182,0.013
		c-0.166,0.014-0.326,0.039-0.471,0.085c-0.172,0.04-0.275,0.073-0.203,0.062c-0.091,0.018-0.282,0.053-0.549,0.099l2.037-2.681
		c0.246-0.325,0.183-0.788-0.142-1.035c-0.325-0.247-0.788-0.182-1.034,0.141l-2.959,3.894c-1.369,0.18-3.084,0.352-4.721,0.364
		C4.991,4.587,1.635,3.666,1.635,3.666c-0.392,0-0.745,0.104-1.026,0.265C0.243,4.115,0.039,4.381,0.02,4.706
		C0.013,4.748,0,4.789,0,4.833C0,5.002,0.068,5.16,0.16,5.306H0.145l0.158,0.206c0.023,0.037,0.039,0.071,0.068,0.107l0.252,0.312
		l7.645,9.453c0.109,0.137,0.23,0.255,0.357,0.357v4.706c0,0.215-0.183,0.455-0.389,0.513l-3.758,1.048
		c-0.42,0.116-0.748,0.549-0.748,0.989c0,0.462,0.375,0.837,0.836,0.837h10.561c0.461,0,0.836-0.375,0.836-0.841
		c0-0.436-0.33-0.867-0.75-0.983l-3.864-1.054c-0.206-0.056-0.388-0.293-0.388-0.509V15.81c0.164-0.117,0.322-0.252,0.464-0.426
		l7.898-9.765c0.105-0.132,0.185-0.263,0.24-0.39V5.228c0,0,0.002-0.004,0.003-0.006c0.08-0.137,0.126-0.289,0.126-0.448
		C19.692,4.349,19.369,3.981,18.895,3.775z M11.6,11.222c-0.969,0-1.753-0.784-1.753-1.752c0-0.969,0.784-1.754,1.753-1.754
		s1.754,0.785,1.754,1.754C13.354,10.438,12.568,11.222,11.6,11.222z"/>
</g>
</svg>
