<?xml version="1.0" encoding="iso-8859-1"?>
<!-- Generator: Adobe Illustrator 15.0.2, SVG Export Plug-In . SVG Version: 6.00 Build 0)  -->
<!DOCTYPE svg PUBLIC "-//W3C//DTD SVG 1.1//EN" "http://www.w3.org/Graphics/SVG/1.1/DTD/svg11.dtd">
<svg version="1.1" id="Layer_1" xmlns="http://www.w3.org/2000/svg" xmlns:xlink="http://www.w3.org/1999/xlink" x="0px" y="0px"
	 width="84.988px" height="95.927px" viewBox="0 0 84.988 95.927" style="enable-background:new 0 0 84.988 95.927;"
	 xml:space="preserve">
<g id="ico_x5F_alcohol_x5F_lg_1_">
	<path id="ico_x5F_alcohol_x5F_lg" d="M81.543,14.448c-0.045-0.02-0.096-0.031-0.143-0.053c-0.43-0.17-0.881-0.312-1.363-0.418
		c-0.125-0.029-0.254-0.062-0.383-0.084c-0.553-0.1-1.117-0.172-1.713-0.172c-0.234,0.002-0.502,0.027-0.781,0.059l-2.906,0.629
		c-0.324,0.062-0.95,0.178-1.816,0.33L81.105,3.2c0.662-0.883,0.484-2.137-0.398-2.801c-0.885-0.661-2.137-0.484-2.801,0.398
		L66.742,15.661c-6.309,0.939-15.557,2.053-24.287,2.119c-0.435,0.004-0.861,0.005-1.289,0.005c-20.217,0-34.117-3.812-34.117-3.812
		c-1.686,0-3.213,0.443-4.43,1.145c-1.578,0.793-2.455,1.943-2.545,3.342C0.045,18.642,0,18.821,0,19.007
		c0,0.738,0.289,1.412,0.686,2.045H0.613l0.688,0.893c0.098,0.152,0.164,0.305,0.295,0.463l1.088,1.34v0.004l32.994,40.797
		c0.847,1.046,1.818,1.843,2.854,2.416v16.207c0,1.318-1.039,2.688-2.309,3.041l-15.27,4.26c-1.27,0.354-2.309,1.721-2.309,3.039
		v0.02c0,1.318,1.079,2.396,2.396,2.396c0,0,2.592,0,21.455,0c18.861,0,21.451,0,21.451,0c1.317,0,2.396-1.078,2.396-2.396v-0.02
		c0-1.318-1.04-2.68-2.312-3.027l-15.699-4.285c-1.272-0.346-2.312-1.709-2.312-3.027V67.199c1.199-0.579,2.322-1.459,3.287-2.651
		l34.088-42.141c0.461-0.576,0.797-1.137,1.037-1.684l0.004-0.01c0.01-0.01,0.01-0.018,0.014-0.025
		c0.344-0.594,0.539-1.248,0.539-1.934C84.988,16.919,83.598,15.331,81.543,14.448z M17.741,32.231L9.059,21.496v-0.012
		l-0.486-0.599c5.412,1.174,17.249,3.274,32.594,3.274c0.444,0,0.889-0.001,1.338-0.005c6.485-0.05,13.178-0.642,18.857-1.331
		l-7.899,10.518c-3.103,0.105-6.651,0.169-10.747,0.169C29.854,33.511,22.24,32.902,17.741,32.231z M45.885,55.472
		c-4.367,0-7.904-3.539-7.904-7.904c0-4.367,3.537-7.904,7.904-7.904c4.365,0,7.904,3.537,7.904,7.904
		C53.789,51.933,50.25,55.472,45.885,55.472z M67.188,32.305c-2.131,0.3-4.919,0.582-8.544,0.799l8.279-11.022
		c4.231-0.616,7.352-1.187,8.519-1.408l0.08-0.016l0.08-0.018l1.238-0.268L67.188,32.305z"/>
</g>
</svg>
